<mxfile host="app.diagrams.net" modified="2024-05-05T04:25:34.682Z" agent="Mozilla/5.0 (Windows NT 10.0; Win64; x64) AppleWebKit/537.36 (KHTML, like Gecko) Chrome/124.0.0.0 Safari/537.36 Edg/124.0.0.0" etag="i7JXfhHNmNc1n7z5Txl7" version="24.3.1" type="google">
  <diagram name="PÃ¡gina-1" id="8f0cfkOvTbkG-iBlBv0a">
    <mxGraphModel grid="1" page="1" gridSize="10" guides="1" tooltips="1" connect="1" arrows="1" fold="1" pageScale="1" pageWidth="827" pageHeight="1169" math="0" shadow="0">
      <root>
        <mxCell id="0" />
        <mxCell id="1" parent="0" />
        <mxCell id="2paFiNL7Onedu1d8AQfy-3" value="" style="edgeStyle=orthogonalEdgeStyle;rounded=0;orthogonalLoop=1;jettySize=auto;html=1;" edge="1" parent="1" source="2paFiNL7Onedu1d8AQfy-1" target="2paFiNL7Onedu1d8AQfy-2">
          <mxGeometry relative="1" as="geometry" />
        </mxCell>
        <mxCell id="2paFiNL7Onedu1d8AQfy-1" value="INICIO" style="ellipse;whiteSpace=wrap;html=1;" vertex="1" parent="1">
          <mxGeometry x="400" y="20" width="80" height="80" as="geometry" />
        </mxCell>
        <mxCell id="2paFiNL7Onedu1d8AQfy-5" value="" style="edgeStyle=orthogonalEdgeStyle;rounded=0;orthogonalLoop=1;jettySize=auto;html=1;" edge="1" parent="1" source="2paFiNL7Onedu1d8AQfy-2" target="2paFiNL7Onedu1d8AQfy-4">
          <mxGeometry relative="1" as="geometry" />
        </mxCell>
        <mxCell id="2paFiNL7Onedu1d8AQfy-2" value="INPUT&lt;div&gt;debut, fin&lt;/div&gt;" style="shape=parallelogram;perimeter=parallelogramPerimeter;whiteSpace=wrap;html=1;fixedSize=1;" vertex="1" parent="1">
          <mxGeometry x="380" y="130" width="120" height="60" as="geometry" />
        </mxCell>
        <mxCell id="2paFiNL7Onedu1d8AQfy-7" value="" style="edgeStyle=orthogonalEdgeStyle;rounded=0;orthogonalLoop=1;jettySize=auto;html=1;" edge="1" parent="1" source="2paFiNL7Onedu1d8AQfy-4" target="2paFiNL7Onedu1d8AQfy-6">
          <mxGeometry relative="1" as="geometry" />
        </mxCell>
        <mxCell id="2paFiNL7Onedu1d8AQfy-4" value="i = 0&lt;div&gt;debut1 = debut&lt;/div&gt;" style="whiteSpace=wrap;html=1;" vertex="1" parent="1">
          <mxGeometry x="380" y="220" width="120" height="60" as="geometry" />
        </mxCell>
        <mxCell id="2paFiNL7Onedu1d8AQfy-10" value="" style="edgeStyle=orthogonalEdgeStyle;rounded=0;orthogonalLoop=1;jettySize=auto;html=1;" edge="1" parent="1" source="2paFiNL7Onedu1d8AQfy-6" target="2paFiNL7Onedu1d8AQfy-9">
          <mxGeometry relative="1" as="geometry" />
        </mxCell>
        <mxCell id="2paFiNL7Onedu1d8AQfy-12" value="" style="edgeStyle=orthogonalEdgeStyle;rounded=0;orthogonalLoop=1;jettySize=auto;html=1;" edge="1" parent="1" source="2paFiNL7Onedu1d8AQfy-6" target="2paFiNL7Onedu1d8AQfy-11">
          <mxGeometry relative="1" as="geometry" />
        </mxCell>
        <mxCell id="2paFiNL7Onedu1d8AQfy-6" value="fin &amp;gt;=debut" style="rhombus;whiteSpace=wrap;html=1;" vertex="1" parent="1">
          <mxGeometry x="400" y="350" width="80" height="80" as="geometry" />
        </mxCell>
        <mxCell id="2paFiNL7Onedu1d8AQfy-8" value="NO" style="text;html=1;align=center;verticalAlign=middle;resizable=0;points=[];autosize=1;strokeColor=none;fillColor=none;" vertex="1" parent="1">
          <mxGeometry x="470" y="350" width="40" height="30" as="geometry" />
        </mxCell>
        <mxCell id="2paFiNL7Onedu1d8AQfy-62" value="" style="edgeStyle=orthogonalEdgeStyle;rounded=0;orthogonalLoop=1;jettySize=auto;html=1;" edge="1" parent="1" source="2paFiNL7Onedu1d8AQfy-9" target="2paFiNL7Onedu1d8AQfy-61">
          <mxGeometry relative="1" as="geometry" />
        </mxCell>
        <mxCell id="2paFiNL7Onedu1d8AQfy-9" value="OUTPUT&lt;div&gt;&quot;El numero de fin no debe&amp;nbsp;&lt;/div&gt;&lt;div&gt;de ser menor al inicial&quot;&lt;/div&gt;" style="shape=parallelogram;perimeter=parallelogramPerimeter;whiteSpace=wrap;html=1;fixedSize=1;" vertex="1" parent="1">
          <mxGeometry x="510" y="360" width="180" height="60" as="geometry" />
        </mxCell>
        <mxCell id="2paFiNL7Onedu1d8AQfy-16" value="" style="edgeStyle=orthogonalEdgeStyle;rounded=0;orthogonalLoop=1;jettySize=auto;html=1;" edge="1" parent="1" source="2paFiNL7Onedu1d8AQfy-11" target="2paFiNL7Onedu1d8AQfy-15">
          <mxGeometry relative="1" as="geometry" />
        </mxCell>
        <mxCell id="2paFiNL7Onedu1d8AQfy-18" value="" style="edgeStyle=orthogonalEdgeStyle;rounded=0;orthogonalLoop=1;jettySize=auto;html=1;" edge="1" parent="1" source="2paFiNL7Onedu1d8AQfy-11" target="2paFiNL7Onedu1d8AQfy-17">
          <mxGeometry relative="1" as="geometry" />
        </mxCell>
        <mxCell id="2paFiNL7Onedu1d8AQfy-11" value="debut &amp;gt; 0 and&lt;div&gt;fin &amp;gt; 0&lt;/div&gt;" style="rhombus;whiteSpace=wrap;html=1;" vertex="1" parent="1">
          <mxGeometry x="380" y="480" width="120" height="90" as="geometry" />
        </mxCell>
        <mxCell id="2paFiNL7Onedu1d8AQfy-13" value="SI" style="text;html=1;align=center;verticalAlign=middle;resizable=0;points=[];autosize=1;strokeColor=none;fillColor=none;" vertex="1" parent="1">
          <mxGeometry x="445" y="438" width="30" height="30" as="geometry" />
        </mxCell>
        <mxCell id="2paFiNL7Onedu1d8AQfy-14" value="NO" style="text;html=1;align=center;verticalAlign=middle;resizable=0;points=[];autosize=1;strokeColor=none;fillColor=none;" vertex="1" parent="1">
          <mxGeometry x="490" y="490" width="40" height="30" as="geometry" />
        </mxCell>
        <mxCell id="2paFiNL7Onedu1d8AQfy-64" value="" style="edgeStyle=orthogonalEdgeStyle;rounded=0;orthogonalLoop=1;jettySize=auto;html=1;" edge="1" parent="1" source="2paFiNL7Onedu1d8AQfy-15" target="2paFiNL7Onedu1d8AQfy-63">
          <mxGeometry relative="1" as="geometry" />
        </mxCell>
        <mxCell id="2paFiNL7Onedu1d8AQfy-15" value="OUTPUT&lt;div&gt;&quot;El numero debe de ser&amp;nbsp;&lt;/div&gt;&lt;div&gt;positivo y mayor a zero&quot;&lt;/div&gt;" style="shape=parallelogram;perimeter=parallelogramPerimeter;whiteSpace=wrap;html=1;fixedSize=1;" vertex="1" parent="1">
          <mxGeometry x="530" y="495" width="180" height="60" as="geometry" />
        </mxCell>
        <mxCell id="2paFiNL7Onedu1d8AQfy-21" value="" style="edgeStyle=orthogonalEdgeStyle;rounded=0;orthogonalLoop=1;jettySize=auto;html=1;" edge="1" parent="1" source="2paFiNL7Onedu1d8AQfy-17" target="2paFiNL7Onedu1d8AQfy-20">
          <mxGeometry relative="1" as="geometry" />
        </mxCell>
        <mxCell id="2paFiNL7Onedu1d8AQfy-25" value="" style="edgeStyle=orthogonalEdgeStyle;rounded=0;orthogonalLoop=1;jettySize=auto;html=1;" edge="1" parent="1" source="2paFiNL7Onedu1d8AQfy-17" target="2paFiNL7Onedu1d8AQfy-24">
          <mxGeometry relative="1" as="geometry" />
        </mxCell>
        <mxCell id="2paFiNL7Onedu1d8AQfy-17" value="debut &amp;lt;= fin" style="rhombus;whiteSpace=wrap;html=1;" vertex="1" parent="1">
          <mxGeometry x="400" y="620" width="80" height="80" as="geometry" />
        </mxCell>
        <mxCell id="2paFiNL7Onedu1d8AQfy-19" value="SI" style="text;html=1;align=center;verticalAlign=middle;resizable=0;points=[];autosize=1;strokeColor=none;fillColor=none;" vertex="1" parent="1">
          <mxGeometry x="445" y="568" width="30" height="30" as="geometry" />
        </mxCell>
        <mxCell id="2paFiNL7Onedu1d8AQfy-20" value="FIN" style="ellipse;whiteSpace=wrap;html=1;" vertex="1" parent="1">
          <mxGeometry x="520" y="620" width="80" height="80" as="geometry" />
        </mxCell>
        <mxCell id="2paFiNL7Onedu1d8AQfy-22" value="NO" style="text;html=1;align=center;verticalAlign=middle;resizable=0;points=[];autosize=1;strokeColor=none;fillColor=none;" vertex="1" parent="1">
          <mxGeometry x="470" y="628" width="40" height="30" as="geometry" />
        </mxCell>
        <mxCell id="2paFiNL7Onedu1d8AQfy-23" value="SI" style="text;html=1;align=center;verticalAlign=middle;resizable=0;points=[];autosize=1;strokeColor=none;fillColor=none;" vertex="1" parent="1">
          <mxGeometry x="455" y="688" width="30" height="30" as="geometry" />
        </mxCell>
        <mxCell id="2paFiNL7Onedu1d8AQfy-27" value="" style="edgeStyle=orthogonalEdgeStyle;rounded=0;orthogonalLoop=1;jettySize=auto;html=1;" edge="1" parent="1" source="2paFiNL7Onedu1d8AQfy-24" target="2paFiNL7Onedu1d8AQfy-26">
          <mxGeometry relative="1" as="geometry" />
        </mxCell>
        <mxCell id="2paFiNL7Onedu1d8AQfy-34" value="" style="edgeStyle=orthogonalEdgeStyle;rounded=0;orthogonalLoop=1;jettySize=auto;html=1;" edge="1" parent="1" source="2paFiNL7Onedu1d8AQfy-24" target="2paFiNL7Onedu1d8AQfy-33">
          <mxGeometry relative="1" as="geometry" />
        </mxCell>
        <mxCell id="2paFiNL7Onedu1d8AQfy-24" value="debut1 != 0" style="rhombus;whiteSpace=wrap;html=1;" vertex="1" parent="1">
          <mxGeometry x="400" y="740" width="80" height="80" as="geometry" />
        </mxCell>
        <mxCell id="2paFiNL7Onedu1d8AQfy-29" style="edgeStyle=orthogonalEdgeStyle;rounded=0;orthogonalLoop=1;jettySize=auto;html=1;entryX=0;entryY=0.5;entryDx=0;entryDy=0;" edge="1" parent="1" source="2paFiNL7Onedu1d8AQfy-26" target="2paFiNL7Onedu1d8AQfy-28">
          <mxGeometry relative="1" as="geometry">
            <Array as="points">
              <mxPoint x="200" y="780" />
              <mxPoint x="200" y="660" />
            </Array>
          </mxGeometry>
        </mxCell>
        <mxCell id="2paFiNL7Onedu1d8AQfy-26" value="OUTPUT&lt;div&gt;debut, &quot;-&amp;gt;&quot;, i&lt;/div&gt;" style="shape=parallelogram;perimeter=parallelogramPerimeter;whiteSpace=wrap;html=1;fixedSize=1;" vertex="1" parent="1">
          <mxGeometry x="220" y="750" width="120" height="60" as="geometry" />
        </mxCell>
        <mxCell id="2paFiNL7Onedu1d8AQfy-30" style="edgeStyle=orthogonalEdgeStyle;rounded=0;orthogonalLoop=1;jettySize=auto;html=1;entryX=0;entryY=0.5;entryDx=0;entryDy=0;" edge="1" parent="1" source="2paFiNL7Onedu1d8AQfy-28" target="2paFiNL7Onedu1d8AQfy-17">
          <mxGeometry relative="1" as="geometry" />
        </mxCell>
        <mxCell id="2paFiNL7Onedu1d8AQfy-28" value="++debut" style="whiteSpace=wrap;html=1;" vertex="1" parent="1">
          <mxGeometry x="260" y="642.5" width="70" height="35" as="geometry" />
        </mxCell>
        <mxCell id="2paFiNL7Onedu1d8AQfy-31" value="NO" style="text;html=1;align=center;verticalAlign=middle;resizable=0;points=[];autosize=1;strokeColor=none;fillColor=none;" vertex="1" parent="1">
          <mxGeometry x="360" y="750" width="40" height="30" as="geometry" />
        </mxCell>
        <mxCell id="2paFiNL7Onedu1d8AQfy-32" value="SI" style="text;html=1;align=center;verticalAlign=middle;resizable=0;points=[];autosize=1;strokeColor=none;fillColor=none;" vertex="1" parent="1">
          <mxGeometry x="410" y="830" width="30" height="30" as="geometry" />
        </mxCell>
        <mxCell id="2paFiNL7Onedu1d8AQfy-41" value="" style="edgeStyle=orthogonalEdgeStyle;rounded=0;orthogonalLoop=1;jettySize=auto;html=1;entryX=0;entryY=0.5;entryDx=0;entryDy=0;" edge="1" parent="1" target="2paFiNL7Onedu1d8AQfy-40">
          <mxGeometry relative="1" as="geometry">
            <mxPoint x="547.5" y="934.5" as="sourcePoint" />
            <mxPoint x="700" y="934.5" as="targetPoint" />
            <Array as="points" />
          </mxGeometry>
        </mxCell>
        <mxCell id="2paFiNL7Onedu1d8AQfy-44" style="edgeStyle=orthogonalEdgeStyle;rounded=0;orthogonalLoop=1;jettySize=auto;html=1;entryX=0;entryY=0.5;entryDx=0;entryDy=0;" edge="1" parent="1" source="2paFiNL7Onedu1d8AQfy-33" target="2paFiNL7Onedu1d8AQfy-40">
          <mxGeometry relative="1" as="geometry" />
        </mxCell>
        <mxCell id="2paFiNL7Onedu1d8AQfy-49" value="" style="edgeStyle=orthogonalEdgeStyle;rounded=0;orthogonalLoop=1;jettySize=auto;html=1;" edge="1" parent="1" source="2paFiNL7Onedu1d8AQfy-33" target="2paFiNL7Onedu1d8AQfy-48">
          <mxGeometry relative="1" as="geometry" />
        </mxCell>
        <mxCell id="2paFiNL7Onedu1d8AQfy-33" value="debut1%3 == 0" style="rhombus;whiteSpace=wrap;html=1;" vertex="1" parent="1">
          <mxGeometry x="387.5" y="890" width="105" height="90" as="geometry" />
        </mxCell>
        <mxCell id="2paFiNL7Onedu1d8AQfy-45" style="edgeStyle=orthogonalEdgeStyle;rounded=0;orthogonalLoop=1;jettySize=auto;html=1;entryX=1;entryY=0.5;entryDx=0;entryDy=0;" edge="1" parent="1" source="2paFiNL7Onedu1d8AQfy-46" target="2paFiNL7Onedu1d8AQfy-24">
          <mxGeometry relative="1" as="geometry">
            <Array as="points" />
          </mxGeometry>
        </mxCell>
        <mxCell id="2paFiNL7Onedu1d8AQfy-40" value="debut1 += 4" style="whiteSpace=wrap;html=1;" vertex="1" parent="1">
          <mxGeometry x="540" y="912.5" width="95" height="45" as="geometry" />
        </mxCell>
        <mxCell id="2paFiNL7Onedu1d8AQfy-42" value="SI" style="text;html=1;align=center;verticalAlign=middle;resizable=0;points=[];autosize=1;strokeColor=none;fillColor=none;" vertex="1" parent="1">
          <mxGeometry x="490" y="900" width="30" height="30" as="geometry" />
        </mxCell>
        <mxCell id="2paFiNL7Onedu1d8AQfy-47" value="" style="edgeStyle=orthogonalEdgeStyle;rounded=0;orthogonalLoop=1;jettySize=auto;html=1;entryX=1;entryY=0.5;entryDx=0;entryDy=0;" edge="1" parent="1" source="2paFiNL7Onedu1d8AQfy-40" target="2paFiNL7Onedu1d8AQfy-46">
          <mxGeometry relative="1" as="geometry">
            <mxPoint x="580" y="913" as="sourcePoint" />
            <mxPoint x="480" y="780" as="targetPoint" />
            <Array as="points">
              <mxPoint x="680" y="935" />
              <mxPoint x="680" y="780" />
            </Array>
          </mxGeometry>
        </mxCell>
        <mxCell id="2paFiNL7Onedu1d8AQfy-46" value="++i" style="whiteSpace=wrap;html=1;" vertex="1" parent="1">
          <mxGeometry x="550" y="765" width="60" height="30" as="geometry" />
        </mxCell>
        <mxCell id="2paFiNL7Onedu1d8AQfy-52" value="" style="edgeStyle=orthogonalEdgeStyle;rounded=0;orthogonalLoop=1;jettySize=auto;html=1;" edge="1" parent="1" source="2paFiNL7Onedu1d8AQfy-48" target="2paFiNL7Onedu1d8AQfy-51">
          <mxGeometry relative="1" as="geometry" />
        </mxCell>
        <mxCell id="2paFiNL7Onedu1d8AQfy-58" value="" style="edgeStyle=orthogonalEdgeStyle;rounded=0;orthogonalLoop=1;jettySize=auto;html=1;" edge="1" parent="1" source="2paFiNL7Onedu1d8AQfy-48" target="2paFiNL7Onedu1d8AQfy-57">
          <mxGeometry relative="1" as="geometry" />
        </mxCell>
        <mxCell id="2paFiNL7Onedu1d8AQfy-48" value="debut1%4 == 0" style="rhombus;whiteSpace=wrap;html=1;" vertex="1" parent="1">
          <mxGeometry x="385" y="1050" width="110" height="80" as="geometry" />
        </mxCell>
        <mxCell id="2paFiNL7Onedu1d8AQfy-50" value="NO" style="text;html=1;align=center;verticalAlign=middle;resizable=0;points=[];autosize=1;strokeColor=none;fillColor=none;" vertex="1" parent="1">
          <mxGeometry x="440" y="990" width="40" height="30" as="geometry" />
        </mxCell>
        <mxCell id="2paFiNL7Onedu1d8AQfy-51" value="debut1 /=2" style="whiteSpace=wrap;html=1;" vertex="1" parent="1">
          <mxGeometry x="530" y="1070" width="80" height="40" as="geometry" />
        </mxCell>
        <mxCell id="2paFiNL7Onedu1d8AQfy-53" value="" style="endArrow=none;html=1;rounded=0;" edge="1" parent="1">
          <mxGeometry width="50" height="50" relative="1" as="geometry">
            <mxPoint x="610" y="1090" as="sourcePoint" />
            <mxPoint x="680" y="930" as="targetPoint" />
            <Array as="points">
              <mxPoint x="680" y="1090" />
            </Array>
          </mxGeometry>
        </mxCell>
        <mxCell id="2paFiNL7Onedu1d8AQfy-54" value="SI" style="text;html=1;align=center;verticalAlign=middle;resizable=0;points=[];autosize=1;strokeColor=none;fillColor=none;" vertex="1" parent="1">
          <mxGeometry x="485" y="1050" width="30" height="30" as="geometry" />
        </mxCell>
        <mxCell id="2paFiNL7Onedu1d8AQfy-57" value="--debut" style="whiteSpace=wrap;html=1;" vertex="1" parent="1">
          <mxGeometry x="400" y="1190" width="80" height="40" as="geometry" />
        </mxCell>
        <mxCell id="2paFiNL7Onedu1d8AQfy-59" value="NO" style="text;html=1;align=center;verticalAlign=middle;resizable=0;points=[];autosize=1;strokeColor=none;fillColor=none;" vertex="1" parent="1">
          <mxGeometry x="440" y="1128" width="40" height="30" as="geometry" />
        </mxCell>
        <mxCell id="2paFiNL7Onedu1d8AQfy-60" value="" style="endArrow=none;html=1;rounded=0;" edge="1" parent="1">
          <mxGeometry width="50" height="50" relative="1" as="geometry">
            <mxPoint x="480" y="1208" as="sourcePoint" />
            <mxPoint x="680" y="1090" as="targetPoint" />
            <Array as="points">
              <mxPoint x="680" y="1208" />
            </Array>
          </mxGeometry>
        </mxCell>
        <mxCell id="2paFiNL7Onedu1d8AQfy-61" value="FIN" style="ellipse;whiteSpace=wrap;html=1;" vertex="1" parent="1">
          <mxGeometry x="720" y="350" width="80" height="80" as="geometry" />
        </mxCell>
        <mxCell id="2paFiNL7Onedu1d8AQfy-63" value="FIN" style="ellipse;whiteSpace=wrap;html=1;" vertex="1" parent="1">
          <mxGeometry x="730" y="485" width="80" height="80" as="geometry" />
        </mxCell>
      </root>
    </mxGraphModel>
  </diagram>
</mxfile>
